PathFileType	4	(X/Y/Z)	C:\Users\preethimanoharan\Documents\OpenSim\4.3\Models\Opensim Spine models\FBLS model Full body musculoskeletal model of lumar spine\Ha Pilot data\test_data_markers.trc
DataRate	CameraRate	NumFrames	NumMarkers	Units	OrigDataRate	OrigDataStartFrame	OrigNumFrames
100.000000	100.000000	4	41	mm	100.000000	695	1854
Frame#	Time	RFHD			LFHD			LBHD			RBHD			LSHO			LUPA			LELB			LFRM			LWRA			LWRB			LFIN			RSHO			RUPA			RELB			RFRM			RWRA			RWRB			RFIN			LTHI			LKNE			LTIB			LANK			LHEE			LTOE			LMT5			RTHI			RKNE			RTIB			RANK			RHEE			RTOE			RMT5			CLAV			STRN			LASI			RASI			C7			LPSI			RPSI			RBAK			T10			
		X1	Y1	Z1	X2	Y2	Z2	X3	Y3	Z3	X4	Y4	Z4	X5	Y5	Z5	X6	Y6	Z6	X7	Y7	Z7	X8	Y8	Z8	X9	Y9	Z9	X10	Y10	Z10	X11	Y11	Z11	X12	Y12	Z12	X13	Y13	Z13	X14	Y14	Z14	X15	Y15	Z15	X16	Y16	Z16	X17	Y17	Z17	X18	Y18	Z18	X19	Y19	Z19	X20	Y20	Z20	X21	Y21	Z21	X22	Y22	Z22	X23	Y23	Z23	X24	Y24	Z24	X25	Y25	Z25	X26	Y26	Z26	X27	Y27	Z27	X28	Y28	Z28	X29	Y29	Z29	X30	Y30	Z30	X31	Y31	Z31	X32	Y32	Z32	X33	Y33	Z33	X34	Y34	Z34	X35	Y35	Z35	X36	Y36	Z36	X37	Y37	Z37	X38	Y38	Z38	X39	Y39	Z39	X40	Y40	Z40	X41	Y41	Z41	

696	6.95	1108.367065429688	1683.472534179688	-735.5192871093749	975.7001342773438	1690.393676757812	-735.0116577148436	971.1891479492188	1675.673461914062	-594.1948852539061	1105.400268554688	1681.120239257812	-598.9578857421874	914.8718872070312	1472.152709960938	-587.1885375976561	750.2528076171875	1462.423461914062	-630.1140747070311	595.8857421875	1444.1474609375	-614.5379638671874	500.8206176757812	1474.15576171875	-631.8417968749999	370.1420288085938	1485.976196289062	-716.7954711914061	361.5565185546875	1478.309326171875	-652.1022338867186	288.10986328125	1480.869262695312	-691.2067871093749	1160.528564453125	1472.452392578125	-605.1339721679686	1333.181762695312	1406.687622070312	-611.0831909179686	1457.489379882812	1418.614990234375	-632.3048706054686	1606.02880859375	1416.0341796875	-659.4143676757811	1697.71826171875	1429.850952148438	-742.7928466796874	1701.1064453125	1399.856811523438	-682.3536376953124	1774.480224609375	1419.8828125	-711.8420410156249	846.423583984375	622.807373046875	-645.1848754882812	860.4889526367188	473.5909423828126	-628.2134399414062	839.4089965820312	261.4001770019532	-580.4871215820312	848.160888671875	77.55341339111331	-566.5069580078125	893.9326171875	40.36683273315433	-521.4498901367188	875.1314697265625	46.83935165405278	-699.9502563476562	820.2584228515625	20.61021995544438	-668.4343872070312	1215.573852539062	616.6865234375	-651.4703979492188	1205.340576171875	476.8604125976563	-636.8331298828125	1233.486450195312	339.6644592285157	-585.2752075195312	1195.973754882812	80.03543090820315	-558.6425170898438	1153.294799804688	49.14344406127933	-517.748779296875	1171.630004882812	51.41342926025395	-682.8806762695312	1240.2333984375	18.23309516906742	-648.6673583984375	1032.020874023438	1408.138061523438	-725.7995605468749	1029.051025390625	1236.5029296875	-754.2711791992186	908.3168334960938	958.7507934570312	-727.2865600585936	1154.218505859375	965.42724609375	-715.5170288085936	1037.19140625	1486.590942382812	-593.0729370117186	964.3344116210938	1003.421325683594	-573.6855468749999	1084.563720703125	999.4522705078125	-568.4024047851561	1117.579345703125	1320.037353515625	-544.7524414062499	1032.9931640625	1111.6845703125	-576.0383911132811	
697	6.96	1108.398803710938	1683.289672851562	-735.4174194335936	975.7999267578125	1690.4248046875	-734.8822021484374	971.2918090820312	1675.675903320312	-594.0526123046874	1105.4716796875	1681.1650390625	-598.8546142578124	914.8382568359375	1472.2744140625	-586.8438110351561	750.287841796875	1462.443969726562	-630.0015258789061	595.9489135742188	1444.206298828125	-614.4199829101561	500.8215026855469	1474.149536132812	-631.6721191406249	370.1463928222656	1486.00927734375	-716.6741333007811	361.5184936523438	1478.121459960938	-651.7065429687499	288.1300048828125	1480.841918945312	-691.0567016601561	1160.558715820312	1472.436767578125	-605.0410156249999	1333.2197265625	1406.635986328125	-611.0446166992186	1457.496459960938	1418.540283203125	-632.2333984374999	1606.074829101562	1415.95361328125	-659.5010986328124	1697.664794921875	1429.763427734375	-742.9202270507811	1701.05078125	1399.754760742188	-682.5012207031249	1774.431396484375	1419.776489257812	-711.9878540039061	846.426025390625	622.6017456054688	-645.1668701171875	860.5302734375	473.4824523925782	-628.2947387695312	839.479248046875	261.3560791015626	-580.5721435546875	848.0924682617188	77.68199157714847	-566.47412109375	893.9446411132812	40.4155197143555	-521.4495849609375	875.1181640625	46.83116912841801	-699.90380859375	820.29345703125	20.49765968322758	-668.474853515625	1215.518310546875	616.6605224609375	-651.4049072265625	1205.34521484375	476.8201904296876	-636.8236694335938	1233.447021484375	339.6259460449219	-585.2803344726562	1195.96142578125	79.99964141845706	-558.6472778320312	1153.754028320312	49.046012878418	-518.0771484375	1171.506469726562	51.12363815307621	-683.2644653320312	1240.260498046875	18.23967933654789	-648.6487426757812	1032.015014648438	1408.130859375	-725.6817016601561	1029.10693359375	1236.578125	-754.2176513671874	908.2906494140625	958.7261352539062	-727.1967773437499	1154.190063476562	965.3279418945312	-715.4251098632811	1037.193359375	1486.61181640625	-592.9190673828124	963.9074096679688	1003.706909179688	-572.6508789062499	1084.6533203125	999.4258422851562	-568.3131103515624	1117.8935546875	1320.141479492188	-544.3890991210936	1033.270141601562	1112.168701171875	-575.2796630859374	
698	6.97	1108.458862304688	1683.430419921875	-735.3139038085936	975.8666381835938	1690.495971679688	-734.8027343749999	971.3750610351562	1675.674072265625	-593.9579467773436	1105.503051757812	1681.143798828125	-598.7658691406249	914.8648681640625	1472.36962890625	-586.6239013671874	750.2704467773438	1462.485473632812	-629.9315185546874	595.9847412109375	1444.24658203125	-614.3649902343749	500.8086853027344	1474.201416015625	-631.5817871093749	370.1455688476562	1485.979370117188	-716.5618286132811	361.521484375	1478.137939453125	-651.5480346679686	288.149658203125	1480.85888671875	-691.0015258789061	1160.684692382812	1472.408081054688	-605.0087280273436	1333.286376953125	1406.626220703125	-611.0136718749999	1457.536865234375	1418.535522460938	-632.2906494140624	1606.047241210938	1415.891357421875	-659.5568847656249	1697.666137695312	1429.701904296875	-743.0390014648436	1700.711669921875	1399.640014648438	-682.9400634765624	1774.44580078125	1419.707397460938	-712.1538696289061	846.5010375976562	622.53515625	-645.1329956054688	860.5169067382812	473.5073547363282	-628.2758178710938	839.42041015625	261.3291931152344	-580.58740234375	848.2015991210938	77.5795822143555	-566.5337524414062	893.9639282226562	40.38698577880862	-521.4083862304688	875.121337890625	46.86822509765629	-699.9561157226562	821.1466064453125	19.16764831542973	-669.3134765625	1215.626342773438	616.6932983398438	-651.3567504882812	1205.400512695312	476.8779907226563	-636.7858276367188	1233.469482421875	339.5919189453126	-585.2612915039062	1195.998168945312	80.023551940918	-558.6668090820312	1153.310791015625	49.17736434936526	-517.7757568359375	1171.470581054688	51.12831497192387	-683.2752685546875	1240.2119140625	18.21834182739262	-648.6742553710938	1032.105346679688	1408.144287109375	-725.6389160156249	1029.187255859375	1236.621459960938	-754.1199340820311	908.32666015625	958.7861938476562	-727.1333007812499	1154.182739257812	965.3368530273438	-715.2836914062499	1037.2216796875	1486.632080078125	-592.8189086914061	964.4739990234375	1003.765197753906	-573.2289428710936	1084.572998046875	999.4409790039062	-568.1983032226561	1117.90234375	1320.11669921875	-544.3356933593749	1033.22021484375	1112.17724609375	-575.1959838867186	
699	6.98	1108.509643554688	1683.35205078125	-735.1915283203124	975.8736572265625	1690.478149414062	-734.6188964843749	971.4469604492188	1675.744873046875	-593.8234863281249	1105.549560546875	1681.12548828125	-598.6083984374999	914.8416137695312	1472.447998046875	-586.2130737304686	750.3131713867188	1462.514404296875	-629.7800903320311	595.9910278320312	1444.244506835938	-614.2871704101561	500.894287109375	1474.19287109375	-631.5373535156249	370.2195434570312	1485.98974609375	-716.5114135742186	361.5713500976562	1478.11767578125	-651.5514526367186	288.1846923828125	1480.85791015625	-690.9151000976561	1160.692993164062	1472.43408203125	-604.8312377929686	1333.322509765625	1406.5810546875	-610.9480590820311	1457.550659179688	1418.520141601562	-632.2849121093749	1606.057861328125	1415.860717773438	-659.6130371093749	1697.612426757812	1429.59912109375	-743.1150512695311	1700.738159179688	1399.550537109375	-683.0587768554686	1774.440673828125	1419.623901367188	-712.3210449218749	846.4841918945312	622.5733032226562	-645.0809326171875	860.5015869140625	473.4907226562501	-628.1800537109375	839.4100952148438	261.2601013183594	-580.5172729492188	848.1588745117188	77.57292175292972	-566.4860229492188	893.9284057617188	40.38741683959964	-521.4199829101562	875.147705078125	46.86870956420903	-699.926025390625	821.2036743164062	19.14573478698735	-669.3470458984375	1215.609741210938	616.6497192382812	-651.2665405273438	1205.361083984375	476.8203430175782	-636.7764892578125	1233.432373046875	339.5637207031251	-585.2562255859375	1195.980712890625	80.00941467285159	-558.6630249023438	1153.840942382812	49.05606842041018	-518.1212158203125	1171.648803710938	51.39683532714848	-682.9347534179688	1240.238647460938	18.23790931701664	-648.6830444335938	1032.040771484375	1408.133666992188	-725.4731445312499	1029.185668945312	1236.634765625	-754.0128784179686	908.251220703125	958.439208984375	-726.9896240234374	1153.139038085938	964.2678833007812	-716.3266601562499	1037.31787109375	1486.6220703125	-592.6814575195311	964.4513549804688	1003.764953613281	-573.1320800781249	1084.581665039062	999.4418334960938	-568.0930175781249	1117.757690429688	1320.088989257812	-544.4093017578124	1033.234497070312	1112.2158203125	-575.0792236328124	
